<?xml version="1.0" standalone="no"?>
<!DOCTYPE svg PUBLIC "-//W3C//DTD SVG 20010904//EN"
 "http://www.w3.org/TR/2001/REC-SVG-20010904/DTD/svg10.dtd">
<svg version="1.0" xmlns="http://www.w3.org/2000/svg"
 width="4000.000000pt" height="2250.000000pt" viewBox="0 0 4000.000000 2250.000000"
 preserveAspectRatio="xMidYMid meet">

<g transform="translate(0.000000,2250.000000) scale(0.100000,-0.100000)"
fill="#000000" stroke="none">
<path d="M20371 16076 c7 -7 779 -102 1229 -151 589 -64 820 -90 1310 -150
569 -70 603 -75 597 -81 -5 -6 -756 -67 -1152 -94 -159 -11 -420 -31 -580 -45
-539 -46 -1489 -126 -1630 -137 -77 -5 -177 -8 -222 -5 -46 4 -83 2 -83 -2 0
-5 -37 -13 -82 -20 -46 -6 -112 -15 -148 -20 -36 -6 -132 -15 -215 -21 -203
-14 -214 -16 -208 -39 3 -10 0 -21 -5 -25 -5 -3 -13 5 -16 19 -4 14 -12 25
-19 25 -6 0 -131 -11 -277 -25 -146 -13 -501 -45 -789 -70 -289 -25 -604 -54
-700 -65 -97 -11 -378 -38 -626 -60 -521 -48 -1110 -107 -1079 -109 26 -1 799
54 959 69 345 32 877 70 1395 100 920 54 1203 76 1315 105 49 13 126 33 169
44 96 26 174 28 183 6 3 -9 4 -17 2 -19 -2 -2 -60 -12 -129 -21 -166 -23 -164
-21 -155 -155 13 -197 15 -215 31 -253 10 -20 14 -40 10 -44 -4 -4 -388 -42
-854 -84 -466 -42 -878 -81 -917 -87 -139 -19 493 -13 836 8 641 40 781 52
887 82 79 21 95 19 69 -10 -20 -22 -23 -93 -4 -89 6 1 16 7 20 12 6 6 10 6 14
-2 3 -10 101 -13 425 -13 l420 0 -6 35 c-3 19 -9 51 -12 70 -4 23 -2 35 5 35
7 0 9 9 5 25 l-6 25 78 0 c44 0 170 9 280 21 l201 21 339 -31 c507 -47 895
-87 1334 -136 537 -60 757 -79 860 -71 199 15 288 18 306 8 11 -5 77 -7 159
-4 83 3 132 8 120 13 -11 4 -37 8 -57 8 -21 1 -38 6 -38 11 0 6 -9 10 -20 10
-11 0 -20 -5 -20 -11 0 -6 -8 -8 -18 -5 -10 3 -45 6 -77 7 -33 0 -136 7 -230
15 -226 19 -236 19 -242 -6 -3 -11 -9 -20 -14 -20 -5 0 -7 11 -3 25 5 21 3 25
-17 25 -13 0 -274 20 -579 45 -305 25 -683 55 -840 66 -460 32 -792 58 -797
63 -6 6 14 8 422 56 328 38 459 51 1530 157 270 26 481 49 469 51 -21 3 -564
-38 -1044 -78 -129 -11 -323 -27 -430 -35 -107 -8 -463 -37 -790 -65 -327 -29
-633 -52 -680 -52 -47 0 -75 -3 -62 -5 18 -4 21 -9 16 -31 -8 -34 -10 -36 -23
-27 -6 3 -11 15 -11 26 0 16 -7 19 -50 19 l-49 0 5 33 c3 17 7 37 9 44 4 12
-19 227 -31 293 -10 60 -14 61 -163 59 -113 -1 -137 1 -139 14 -6 32 97 35
299 10 133 -17 140 -16 375 6 131 12 313 31 404 42 1087 123 1355 151 2395
250 55 5 111 11 125 14 14 3 126 -6 250 -20 240 -27 402 -31 515 -14 92 14
268 13 295 -1 43 -23 9 -32 -97 -26 -58 4 -119 4 -136 1 -63 -12 -65 -18 -86
-199 -20 -166 -20 -169 -1 -244 25 -99 25 -110 -8 -279 l-28 -141 125 -6 c270
-12 662 -48 799 -72 l32 -6 0 168 c0 159 1 172 27 237 15 38 33 71 40 74 19 7
426 -46 938 -122 629 -94 604 -92 754 -71 142 20 184 19 189 -6 4 -21 -54 -32
-165 -30 -58 0 -85 -3 -93 -13 -17 -20 -34 -276 -19 -285 14 -10 803 -23 1079
-18 l204 3 8 40 c7 40 28 105 51 157 11 26 15 27 62 23 27 -3 129 -10 225 -15
190 -12 372 -28 749 -65 217 -22 338 -30 276 -19 -56 11 -1246 153 -1282 154
-22 0 -23 3 -23 111 0 100 2 110 18 105 33 -9 219 -45 342 -66 69 -11 235 -45
370 -75 506 -113 893 -195 897 -191 3 2 -134 38 -304 79 -475 116 -619 149
-1018 238 -203 45 -404 89 -445 98 -82 19 -135 42 -143 64 -6 17 -51 25 -183
33 -58 3 -172 22 -274 45 -96 21 -183 39 -192 39 -10 0 -18 5 -18 10 0 6 16 8
38 5 20 -2 96 -10 167 -15 72 -6 220 -20 330 -30 381 -37 1108 -100 1139 -99
47 2 -580 72 -1189 134 -137 14 -344 36 -460 50 -115 13 -277 31 -360 39 -86
9 -277 41 -450 76 -520 105 -959 190 -968 187 -11 -3 217 -79 384 -126 126
-37 179 -60 109 -48 -76 13 -480 50 -486 44 -3 -3 -1 -15 6 -26 9 -17 8 -21
-4 -21 -9 0 -20 9 -26 20 -18 33 -41 39 -211 55 -90 8 -198 21 -239 30 -41 8
-115 22 -164 30 -49 9 -92 18 -97 20 -4 3 -9 1 -11 -4 -4 -11 -284 4 -468 25
-74 8 -189 19 -255 25 -66 5 -304 27 -530 49 -575 55 -1027 97 -1255 115 -107
8 -314 26 -460 40 -256 23 -727 65 -1205 105 -126 11 -255 22 -285 26 -30 3
-52 3 -49 0z m4514 -456 c3 -5 -1 -10 -9 -10 -8 0 -18 5 -21 10 -3 6 1 10 9
10 8 0 18 -4 21 -10z m531 -66 c180 -45 297 -58 986 -109 207 -15 208 -15 485
-91 491 -134 508 -136 682 -113 87 12 131 7 131 -15 0 -9 -28 -15 -106 -19
-110 -7 -169 -25 -178 -55 -3 -10 -7 -43 -8 -75 -1 -33 -8 -63 -15 -69 -18
-14 -159 -6 -453 26 -317 34 -707 74 -805 81 -168 13 -741 66 -753 70 -10 4
-11 37 -6 160 6 140 5 157 -11 175 -19 20 -73 34 -199 50 -85 11 -92 13 -81
30 12 19 151 0 331 -46z m254 -6 c0 -15 -15 -8 -28 12 -12 19 -11 20 8 8 11
-7 20 -16 20 -20z m-1240 -62 c0 -3 -4 -8 -10 -11 -5 -3 -10 -1 -10 4 0 6 5
11 10 11 6 0 10 -2 10 -4z m30 -5 c0 -6 -4 -13 -10 -16 -5 -3 -10 1 -10 9 0 9
5 16 10 16 6 0 10 -4 10 -9z m40 -1 c0 -5 -4 -10 -10 -10 -5 0 -10 5 -10 10 0
6 5 10 10 10 6 0 10 -4 10 -10z m847 -82 c-3 -8 -6 -5 -6 6 -1 11 2 17 5 13 3
-3 4 -12 1 -19z m-32 2 c-3 -5 -10 -10 -16 -10 -5 0 -9 5 -9 10 0 6 7 10 16
10 8 0 12 -4 9 -10z m-388 -56 c2 -6 -5 -21 -15 -34 l-19 -24 -17 27 c-10 14
-15 31 -11 37 9 14 57 9 62 -6z m86 -11 c-7 -2 -21 -2 -30 0 -10 3 -4 5 12 5
17 0 24 -2 18 -5z m127 -9 c0 -2 -16 -4 -35 -4 -19 0 -35 4 -35 8 0 4 16 6 35
4 19 -2 35 -6 35 -8z m37 -10 c-3 -3 -12 -4 -19 -1 -8 3 -5 6 6 6 11 1 17 -2
13 -5z m-157 -14 c0 -5 -4 -10 -10 -10 -5 0 -10 5 -10 10 0 6 5 10 10 10 6 0
10 -4 10 -10z m40 0 c13 -8 13 -10 -2 -10 -9 0 -20 5 -23 10 -8 13 5 13 25 0z
m-5910 -8 c0 -5 -7 -9 -15 -9 -8 0 -15 4 -15 9 0 4 7 8 15 8 8 0 15 -4 15 -8z
m5981 -1 c-8 -5 -20 -7 -28 -4 -21 8 -15 13 15 13 20 0 23 -3 13 -9z m-4856
-79 c0 -18 -20 -15 -23 4 -3 10 1 15 10 12 7 -3 13 -10 13 -16z m35 2 c0 -8
-4 -12 -10 -9 -5 3 -10 10 -10 16 0 5 5 9 10 9 6 0 10 -7 10 -16z m7557 0 c-3
-3 -12 -4 -19 -1 -8 3 -5 6 6 6 11 1 17 -2 13 -5z m-8397 -69 c0 -8 -4 -15
-10 -15 -5 0 -10 7 -10 15 0 8 5 15 10 15 6 0 10 -7 10 -15z m40 -5 c0 -5 -4
-10 -10 -10 -5 0 -10 5 -10 10 0 6 5 10 10 10 6 0 10 -4 10 -10z m659 -44
c-11 -10 -139 -16 -139 -6 0 6 29 10 72 10 39 0 69 -2 67 -4z m-242 -21 c2 -6
-3 -20 -11 -30 -15 -20 -15 -20 -37 1 -12 12 -18 27 -14 34 8 13 57 9 62 -5z
m86 8 c-7 -2 -21 -2 -30 0 -10 3 -4 5 12 5 17 0 24 -2 18 -5z m57 -25 c0 -4
-7 -8 -15 -8 -8 0 -15 4 -15 8 0 5 7 9 15 9 8 0 15 -4 15 -9z m90 8 c0 -2 -16
-6 -35 -8 -19 -2 -35 0 -35 4 0 4 16 8 35 8 19 0 35 -2 35 -4z m7325 -6 c3 -5
1 -10 -4 -10 -6 0 -11 5 -11 10 0 6 2 10 4 10 3 0 8 -4 11 -10z m-7495 -10 c0
-5 -4 -10 -10 -10 -5 0 -10 5 -10 10 0 6 5 10 10 10 6 0 10 -4 10 -10z m8285
-20 c3 -5 1 -10 -4 -10 -6 0 -11 5 -11 10 0 6 2 10 4 10 3 0 8 -4 11 -10z
m-139 -59 c8 7 17 9 21 5 3 -3 1 -6 -5 -6 -7 0 -12 -5 -12 -11 0 -5 4 -7 10
-4 6 3 7 -1 4 -9 -3 -9 -10 -16 -15 -16 -9 0 -29 34 -28 47 0 4 3 2 6 -5 4
-10 8 -10 19 -1z m-7606 -88 c0 -7 -7 -13 -15 -13 -8 0 -15 6 -15 13 0 8 7 14
15 14 8 0 15 -6 15 -14z m6480 -59 c0 -8 -5 -12 -10 -9 -6 4 -8 11 -5 16 9 14
15 11 15 -7z m27 -6 c-3 -8 -6 -5 -6 6 -1 11 2 17 5 13 3 -3 4 -12 1 -19z
m-3757 -138 c0 -5 -7 -10 -16 -10 -8 0 -12 5 -9 10 3 6 10 10 16 10 5 0 9 -4
9 -10z"/>
<path d="M24883 15343 c9 -2 17 -9 17 -14 0 -6 -4 -7 -10 -4 -11 7 -14 -8 -3
-18 5 -6 32 21 33 33 0 3 -12 6 -27 7 -16 0 -20 -1 -10 -4z"/>
<path d="M19882 15073 c11 -3 15 -10 11 -21 -6 -16 -6 -16 10 0 22 22 22 23
-10 25 -16 0 -20 -1 -11 -4z"/>
<path d="M18755 16020 c-308 -27 -717 -62 -910 -79 -192 -17 -438 -38 -545
-47 -217 -16 -675 -58 -1485 -134 -738 -69 -945 -83 -971 -67 -5 3 -34 -1 -64
-9 -30 -8 -67 -14 -82 -14 -14 0 -38 -4 -53 -10 -39 -15 -138 -29 -322 -45
-93 -8 -174 -15 -181 -15 -7 0 -18 -11 -24 -25 -13 -30 -32 -34 -23 -5 8 27 3
27 -362 -10 -164 -16 -512 -50 -773 -75 -261 -25 -551 -54 -645 -65 -93 -11
-345 -38 -560 -59 -366 -36 -395 -38 -468 -25 -132 23 -772 114 -793 113 -10
-1 136 -27 326 -60 437 -74 411 -69 406 -78 -3 -5 -43 -11 -90 -15 -74 -6
-101 -3 -213 23 -185 44 -405 91 -417 90 -6 0 89 -27 212 -59 123 -32 226 -60
228 -63 10 -9 -28 -15 -216 -34 -102 -10 -176 -19 -165 -21 11 -1 121 6 244
17 l224 19 181 -44 c99 -25 182 -47 185 -50 3 -3 0 -8 -6 -12 -8 -5 -17 -63
-24 -152 -11 -137 -10 -151 11 -245 12 -55 24 -110 26 -122 l4 -23 650 0 650
0 0 70 c0 60 2 70 18 70 21 0 532 -102 628 -125 58 -14 92 -16 180 -10 l109 7
-175 49 c-172 48 -841 225 -950 252 -39 9 -58 19 -65 35 -7 16 -21 23 -55 27
-102 12 -114 17 -115 50 0 30 0 30 50 27 28 -1 194 -20 370 -42 352 -43 654
-74 661 -67 8 8 -1295 257 -1346 257 -6 0 -10 6 -10 13 0 17 -164 38 -224 30
-40 -6 -239 23 -266 38 -13 7 -13 8 0 9 8 0 106 9 217 20 268 26 766 65 1153
90 1021 66 1233 87 1433 139 170 44 317 62 317 39 0 -10 -36 -20 -132 -36 -85
-14 -138 -28 -150 -39 -18 -16 -18 -28 -12 -177 6 -153 8 -166 42 -251 l35
-90 -2 -169 -2 -169 38 7 c153 26 491 56 796 72 70 3 127 8 127 9 0 2 -7 37
-15 77 -45 212 -46 232 -24 331 18 83 19 102 9 192 -20 177 -31 233 -47 247
-12 10 -52 12 -155 10 -116 -2 -138 0 -138 12 0 9 14 18 36 22 41 7 229 -1
369 -16 107 -11 273 3 910 81 818 99 1157 139 1500 174 193 20 562 61 820 91
930 108 949 115 110 44z m-4685 -463 c0 -8 -7 -14 -15 -14 -11 0 -12 4 -4 14
6 7 13 13 15 13 2 0 4 -6 4 -13z m1200 -62 c0 -8 -4 -15 -10 -15 -5 0 -10 7
-10 15 0 8 5 15 10 15 6 0 10 -7 10 -15z m35 6 c3 -5 1 -12 -5 -16 -5 -3 -10
1 -10 9 0 18 6 21 15 7z m-895 -77 c0 -8 -4 -12 -10 -9 -5 3 -10 10 -10 16 0
5 5 9 10 9 6 0 10 -7 10 -16z m560 -75 c0 -10 -141 -17 -159 -8 -8 4 5 7 28 7
24 1 45 2 46 4 7 7 85 3 85 -3z m30 1 c0 -5 -4 -10 -10 -10 -5 0 -10 5 -10 10
0 6 5 10 10 10 6 0 10 -4 10 -10z m-210 -10 c0 -5 -12 -10 -27 -9 l-28 1 25 8
c14 4 26 8 28 9 1 1 2 -3 2 -9z m-90 -13 c0 -7 -7 -22 -15 -33 -15 -19 -15
-19 -35 5 -11 12 -17 27 -14 32 8 14 64 11 64 -4z m150 -17 c0 -13 -20 -13
-40 0 -12 8 -9 10 13 10 15 0 27 -4 27 -10z m100 6 c0 -2 -18 -6 -40 -8 -22
-2 -40 0 -40 4 0 5 18 8 40 8 22 0 40 -2 40 -4z m-190 -10 c0 -3 -4 -8 -10
-11 -5 -3 -10 -1 -10 4 0 6 5 11 10 11 6 0 10 -2 10 -4z m-3245 -54 c83 -21
149 -42 148 -47 -3 -15 -72 -27 -128 -22 -62 5 -385 79 -385 89 0 4 21 9 48
11 124 9 171 5 317 -31z m-108 -194 c-3 -8 -6 -5 -6 6 -1 11 2 17 5 13 3 -3 4
-12 1 -19z m43 -9 c0 -6 -4 -7 -10 -4 -5 3 -10 11 -10 16 0 6 5 7 10 4 6 -3
10 -11 10 -16z m790 -18 c0 -6 -4 -13 -10 -16 -5 -3 -10 1 -10 9 0 9 5 16 10
16 6 0 10 -4 10 -9z m-677 -108 c-7 -2 -19 -2 -25 0 -7 3 -2 5 12 5 14 0 19
-2 13 -5z m130 -2 c15 -1 27 -6 27 -12 0 -5 -4 -8 -9 -5 -4 3 -31 6 -59 7 -28
1 -57 6 -64 11 -8 5 5 7 32 4 25 -2 57 -5 73 -5z m-205 -19 c2 -7 -1 -12 -8
-12 -6 0 -9 4 -6 9 4 5 1 12 -4 14 -6 3 -5 4 2 3 6 -1 14 -8 16 -14z m262 14
c0 -3 -4 -8 -10 -11 -5 -3 -10 -1 -10 4 0 6 5 11 10 11 6 0 10 -2 10 -4z
m-145 -26 c3 -5 2 -10 -4 -10 -5 0 -13 5 -16 10 -3 6 -2 10 4 10 5 0 13 -4 16
-10z m65 -6 c0 -2 -9 -4 -20 -4 -11 0 -20 4 -20 9 0 5 9 7 20 4 11 -3 20 -7
20 -9z"/>
<path d="M14655 15320 c11 -5 14 -9 7 -9 -7 -1 -10 -6 -7 -11 4 -6 12 -5 21 4
19 20 18 21 -13 23 -24 1 -25 1 -8 -7z"/>
<path d="M3425 15684 c-71 -30 -289 -134 -484 -230 -375 -186 -366 -182 -528
-194 -2 0 -3 -13 -3 -29 l0 -28 -82 -7 c-96 -7 -156 -22 -180 -43 -11 -9 -20
-38 -24 -72 l-6 -56 -131 -60 c-178 -80 -347 -193 -347 -231 0 -18 0 -18 258
107 123 60 224 109 225 109 1 0 2 -35 2 -77 0 -43 2 -84 5 -92 4 -12 -16 -19
-90 -33 -88 -16 -71 -17 56 -2 l51 6 13 -47 c11 -38 11 -72 1 -182 -6 -75 -10
-137 -8 -140 2 -2 35 1 73 7 183 27 583 30 757 4 56 -8 55 -15 31 160 l-16
115 27 83 c15 46 30 86 33 90 4 3 24 10 45 13 l37 7 0 -146 c0 -131 3 -152 25
-212 14 -36 25 -78 25 -92 l0 -25 88 7 c139 10 592 36 643 36 l46 0 22 78 c23
80 25 127 13 297 -9 112 -12 115 -164 115 l-108 0 0 25 c0 30 3 30 107 10 140
-27 116 -31 1148 175 202 40 280 59 273 65 -1 2 -57 -3 -123 -11 -66 -8 -232
-27 -370 -43 -137 -17 -279 -33 -315 -36 -36 -4 -177 -22 -315 -41 -137 -19
-254 -34 -260 -34 -5 -1 15 -13 45 -27 30 -15 49 -28 42 -31 -7 -2 -29 7 -49
19 -40 25 -55 26 -263 14 -192 -10 -234 -16 -251 -34 -23 -25 -338 -69 -350
-50 -5 8 -9 59 -9 115 0 91 -2 102 -22 122 -23 21 -86 35 -210 48 -42 4 -58
10 -58 20 0 13 12 14 78 9 76 -7 78 -7 142 30 151 88 473 309 524 360 60 60
96 115 74 115 -7 0 -71 -25 -143 -56z m-1255 -624 c0 -5 -4 -10 -10 -10 -5 0
-10 5 -10 10 0 6 5 10 10 10 6 0 10 -4 10 -10z m830 1 c0 -6 -4 -13 -10 -16
-5 -3 -10 1 -10 9 0 9 5 16 10 16 6 0 10 -4 10 -9z m30 -1 c0 -5 -4 -10 -10
-10 -5 0 -10 5 -10 10 0 6 5 10 10 10 6 0 10 -4 10 -10z m-790 -100 c-20 -13
-33 -13 -25 0 3 6 14 10 23 10 15 0 15 -2 2 -10z m1165 -40 c-3 -5 -21 -10
-38 -10 -24 0 -28 3 -17 10 20 13 63 13 55 0z m-858 -36 c-9 -9 -28 6 -21 18
4 6 10 6 17 -1 6 -6 8 -13 4 -17z m683 -90 c0 -8 -4 -12 -10 -9 -5 3 -10 10
-10 16 0 5 5 9 10 9 6 0 10 -7 10 -16z m-20 -24 c0 -5 -5 -10 -11 -10 -5 0 -7
5 -4 10 3 6 8 10 11 10 2 0 4 -4 4 -10z"/>
<path d="M4210 15714 c102 -13 347 -42 545 -64 198 -23 450 -54 560 -70 110
-16 344 -50 520 -75 410 -59 427 -62 309 -64 -73 -1 -94 -4 -107 -19 -11 -12
-19 -56 -28 -152 -6 -76 -16 -138 -23 -142 -7 -5 -7 -8 3 -8 7 0 11 -6 8 -13
-3 -8 4 -45 15 -83 25 -86 24 -176 -2 -320 -10 -59 -17 -111 -15 -114 9 -14
420 -46 729 -56 l198 -7 -6 29 c-3 16 -7 92 -8 169 -2 116 1 148 16 190 11 28
22 53 26 58 3 4 218 -31 476 -79 665 -121 760 -137 821 -130 53 6 83 1 83 -15
0 -5 -43 -9 -96 -9 -66 0 -106 -5 -129 -16 -31 -14 -33 -19 -40 -80 -4 -36 -5
-68 -2 -70 2 -3 187 -2 411 2 320 6 406 10 406 20 0 22 12 23 120 8 108 -14
353 -16 540 -5 l105 6 -215 33 c-118 18 -334 51 -480 73 -145 22 -278 46 -295
54 -41 20 -152 35 -260 35 -49 0 -148 9 -220 20 -168 26 -1204 180 -1213 180
-2 0 -1 3 1 8 3 4 8 81 12 172 3 91 8 166 9 167 5 5 926 -59 1241 -87 425 -37
1036 -83 1041 -77 4 4 -126 20 -736 92 -206 25 -406 49 -444 55 -38 6 -312 38
-609 70 -568 63 -582 64 -623 22 -16 -15 -54 -25 -54 -13 0 3 19 17 43 31 l42
24 -73 8 c-40 4 -96 14 -124 23 -29 8 -73 15 -99 15 -26 0 -50 4 -53 8 -3 5
-51 7 -108 4 -73 -3 -182 5 -378 27 -280 31 -800 83 -1215 121 -852 78 -942
84 -625 44z m2110 -264 c0 -5 -8 -10 -17 -10 -15 0 -16 2 -3 10 19 12 20 12
20 0z m-240 -119 c0 -6 -4 -13 -10 -16 -5 -3 -10 1 -10 9 0 9 5 16 10 16 6 0
10 -4 10 -9z m30 -16 c0 -8 -2 -15 -4 -15 -2 0 -6 7 -10 15 -3 8 -1 15 4 15 6
0 10 -7 10 -15z m792 -47 c-9 -9 -12 -7 -12 12 0 19 3 21 12 12 9 -9 9 -15 0
-24z m38 6 c0 -8 -5 -12 -10 -9 -6 4 -8 11 -5 16 9 14 15 11 15 -7z m-806 -92
c2 -4 -4 -13 -15 -20 -11 -7 -19 -8 -19 -2 0 5 5 10 11 10 5 0 7 5 4 10 -3 6
-2 10 4 10 5 0 12 -4 15 -8z m79 -19 c-7 -2 -19 -2 -25 0 -7 3 -2 5 12 5 14 0
19 -2 13 -5z m150 -2 c20 -1 37 -5 37 -9 0 -9 -160 4 -169 14 -3 3 17 3 44 1
28 -3 67 -6 88 -6z m-30 -38 c-13 -2 -33 -2 -45 0 -13 2 -3 4 22 4 25 0 35 -2
23 -4z m2150 -380 c-7 -2 -19 -2 -25 0 -7 3 -2 5 12 5 14 0 19 -2 13 -5z
m-373 -117 c0 -3 -4 -8 -10 -11 -5 -3 -10 -1 -10 4 0 6 5 11 10 11 6 0 10 -2
10 -4z m30 -6 c0 -5 -4 -10 -10 -10 -5 0 -10 5 -10 10 0 6 5 10 10 10 6 0 10
-4 10 -10z"/>
<path d="M35598 15733 c12 -2 30 -2 40 0 9 3 -1 5 -23 4 -22 0 -30 -2 -17 -4z"/>
<path d="M36207 15709 c39 -68 124 -146 282 -259 91 -65 203 -141 249 -170
l82 -52 75 7 c63 6 75 4 75 -8 0 -12 -15 -17 -57 -21 -225 -22 -229 -25 -235
-176 -2 -61 -8 -113 -12 -117 -6 -6 -314 33 -343 44 -7 3 -13 11 -13 18 0 14
-53 21 -230 28 -52 2 -225 23 -385 46 -159 23 -364 50 -455 61 -264 30 -672
79 -710 85 -24 4 -30 2 -20 -4 20 -12 283 -70 540 -120 113 -22 304 -60 425
-85 240 -50 290 -54 408 -31 104 20 109 20 105 -7 -3 -22 -7 -23 -119 -26
-153 -4 -148 2 -160 -183 -8 -129 -7 -149 11 -210 11 -36 20 -75 20 -86 0 -19
9 -21 123 -27 192 -11 547 -35 605 -42 50 -5 52 -5 52 19 0 20 25 107 46 157
4 8 7 80 8 160 2 130 4 145 19 144 75 -3 79 -4 74 -18 -3 -7 -2 -17 3 -22 4
-5 17 -39 28 -75 21 -69 20 -88 -12 -325 l-4 -31 46 9 c150 28 601 26 768 -3
36 -6 68 -9 71 -6 3 3 0 51 -6 107 -14 128 -14 189 0 229 9 26 16 32 33 28 11
-3 48 -8 81 -11 l60 -5 -74 14 c-40 8 -76 16 -79 19 -2 3 1 19 8 35 8 19 10
53 7 93 -4 34 -3 58 1 52 11 -16 62 -44 250 -139 95 -48 176 -85 179 -81 4 3
-3 19 -14 34 -38 51 -158 133 -283 194 -69 34 -126 62 -128 63 -2 2 -6 29 -9
61 -3 33 -12 66 -20 75 -18 22 -85 38 -184 46 -79 6 -79 6 -79 34 0 16 -1 29
-2 29 -155 11 -174 17 -325 100 -304 167 -742 380 -779 380 -13 0 -12 -5 3
-31z m510 -661 c-3 -8 -6 -5 -6 6 -1 11 2 17 5 13 3 -3 4 -12 1 -19z m38 13
c3 -5 1 -12 -5 -16 -5 -3 -10 1 -10 9 0 18 6 21 15 7z m-395 -141 c11 -7 7
-10 -17 -10 -18 0 -33 5 -33 10 0 13 30 13 50 0z m-590 -119 c0 -6 -4 -13 -10
-16 -5 -3 -10 1 -10 9 0 9 5 16 10 16 6 0 10 -4 10 -9z m27 -13 c-3 -8 -6 -5
-6 6 -1 11 2 17 5 13 3 -3 4 -12 1 -19z m713 -14 c0 -8 -4 -12 -10 -9 -5 3
-10 10 -10 16 0 5 5 9 10 9 6 0 10 -7 10 -16z m35 7 c3 -5 1 -12 -5 -16 -5 -3
-10 1 -10 9 0 18 6 21 15 7z"/>
<path d="M35385 15719 c-44 -4 -228 -22 -410 -39 -572 -53 -1041 -100 -1315
-132 -197 -22 -291 -29 -368 -25 -56 3 -105 1 -108 -4 -3 -5 -27 -9 -54 -9
-27 0 -69 -6 -92 -14 -24 -8 -90 -20 -148 -26 -284 -29 -1182 -132 -1235 -140
-33 -6 -231 -31 -440 -55 -504 -60 -687 -84 -694 -91 -3 -4 17 -4 44 0 28 3
151 13 275 21 124 9 401 31 615 50 215 19 563 46 775 60 212 13 413 27 446 31
l62 5 6 -148 c4 -81 8 -160 11 -174 l4 -26 -117 -16 c-164 -22 -825 -122
-1017 -153 -88 -14 -235 -30 -326 -34 -127 -7 -180 -14 -225 -30 -33 -11 -232
-47 -449 -81 -214 -34 -439 -69 -500 -78 l-110 -18 265 -7 c232 -6 282 -4 400
13 74 10 138 17 143 14 4 -2 7 -13 7 -24 0 -18 8 -19 163 -19 89 0 273 -3 410
-7 l247 -6 0 39 c0 21 -3 56 -7 78 -8 52 -43 66 -168 66 -52 0 -95 4 -95 9 0
16 30 21 83 15 59 -7 122 3 697 111 530 98 587 108 602 102 31 -11 49 -101 49
-236 -1 -72 -4 -150 -7 -173 l-7 -41 199 7 c290 10 676 38 726 52 13 4 16 10
9 22 -8 16 -36 192 -44 277 -3 23 6 75 20 124 13 46 21 90 19 98 -3 8 4 18 17
23 l22 9 -22 0 c-17 1 -23 7 -23 24 0 12 -5 73 -10 136 -8 88 -14 117 -28 127
-11 9 -49 13 -111 14 -52 0 -92 2 -90 4 2 2 74 14 159 26 85 11 299 43 475 70
324 50 481 70 1040 135 171 20 335 40 365 44 l55 9 -55 -1 c-30 0 -91 -3 -135
-8z m-1715 -405 c0 -8 -4 -12 -10 -9 -5 3 -10 10 -10 16 0 5 5 9 10 9 6 0 10
-7 10 -16z m-40 -4 c0 -5 -2 -10 -4 -10 -3 0 -8 5 -11 10 -3 6 -1 10 4 10 6 0
11 -4 11 -10z m-780 -40 c0 -11 -4 -20 -10 -20 -5 0 -10 9 -10 20 0 11 5 20
10 20 6 0 10 -9 10 -20z m-50 -6 c0 -8 -4 -12 -10 -9 -5 3 -10 10 -10 16 0 5
5 9 10 9 6 0 10 -7 10 -16z m690 -94 c0 -5 -12 -10 -27 -9 l-28 1 25 8 c14 4
26 8 28 9 1 1 2 -3 2 -9z m80 6 c0 -2 -16 -6 -35 -8 -19 -2 -35 0 -35 4 0 4
16 8 35 8 19 0 35 -2 35 -4z m-240 -23 c0 -10 -5 -25 -10 -33 -13 -20 -44 -2
-48 29 -3 18 2 21 27 21 23 0 31 -5 31 -17z m83 6 c-8 -8 -16 -8 -30 0 -16 9
-14 10 12 11 21 0 26 -3 18 -11z m107 -19 c0 -5 -8 -10 -17 -10 -15 0 -16 2
-3 10 19 12 20 12 20 0z m-57 -7 c-7 -2 -19 -2 -25 0 -7 3 -2 5 12 5 14 0 19
-2 13 -5z m-2236 -389 c-3 -3 -12 -4 -19 -1 -8 3 -5 6 6 6 11 1 17 -2 13 -5z
m379 -121 c-10 -10 -19 5 -10 18 6 11 8 11 12 0 2 -7 1 -15 -2 -18z"/>
<path d="M33290 15130 c0 -5 5 -10 11 -10 5 0 7 5 4 10 -3 6 -8 10 -11 10 -2
0 -4 -4 -4 -10z"/>
<path d="M10438 15453 c6 -2 18 -2 25 0 6 3 1 5 -13 5 -14 0 -19 -2 -12 -5z"/>
<path d="M10473 15223 c9 -2 25 -2 35 0 9 3 1 5 -18 5 -19 0 -27 -2 -17 -5z"/>
<path d="M29098 15223 c12 -2 32 -2 45 0 12 2 2 4 -23 4 -25 0 -35 -2 -22 -4z"/>
<path d="M23533 15163 c15 -2 37 -2 50 0 12 2 0 4 -28 4 -27 0 -38 -2 -22 -4z"/>
<path d="M5848 15143 c6 -2 18 -2 25 0 6 3 1 5 -13 5 -14 0 -19 -2 -12 -5z"/>
<path d="M33798 15143 c6 -2 18 -2 25 0 6 3 1 5 -13 5 -14 0 -19 -2 -12 -5z"/>
<path d="M5923 15133 c9 -2 23 -2 30 0 6 3 -1 5 -18 5 -16 0 -22 -2 -12 -5z"/>
<path d="M15578 14993 c7 -3 16 -2 19 1 4 3 -2 6 -13 5 -11 0 -14 -3 -6 -6z"/>
<path d="M19220 14934 c-25 -4 -1170 -89 -1335 -100 -49 -3 -306 -23 -570 -44
-264 -22 -572 -46 -685 -55 -113 -9 -209 -21 -214 -26 -6 -5 -2 -9 12 -9 13 0
22 -6 22 -15 0 -8 -4 -15 -10 -15 -5 0 -10 6 -10 13 0 8 -4 7 -10 -3 -9 -13
-13 -11 -29 9 l-18 24 -218 -18 c-119 -10 -251 -15 -291 -12 -43 3 -74 2 -74
-4 0 -5 -17 -10 -37 -10 -21 -1 -51 -4 -68 -8 -18 -5 30 -9 120 -13 88 -3 158
-1 169 5 18 9 93 7 311 -9 108 -7 284 7 950 81 461 51 672 72 1600 160 209 20
412 40 450 44 69 8 69 8 15 8 -30 0 -66 -2 -80 -3z"/>
<path d="M20413 14933 c9 -2 23 -2 30 0 6 3 -1 5 -18 5 -16 0 -22 -2 -12 -5z"/>
<path d="M1903 14723 c9 -2 23 -2 30 0 6 3 -1 5 -18 5 -16 0 -22 -2 -12 -5z"/>
<path d="M37748 14723 c6 -2 18 -2 25 0 6 3 1 5 -13 5 -14 0 -19 -2 -12 -5z"/>
<path d="M29668 14713 c12 -2 30 -2 40 0 9 3 -1 5 -23 4 -22 0 -30 -2 -17 -4z"/>
<path d="M16250 14581 c0 -6 5 -13 11 -17 8 -4 8 -9 0 -17 -6 -6 -11 -15 -11
-19 0 -14 23 -8 36 10 10 14 10 20 -3 35 -18 19 -33 22 -33 8z"/>
<path d="M16396 14572 c-15 -18 -15 -20 2 -35 26 -23 52 -23 29 0 -15 16 -15
18 0 35 14 15 14 18 1 18 -8 0 -22 -8 -32 -18z"/>
<path d="M23312 14571 c9 -15 9 -23 -1 -35 -20 -24 11 -21 33 2 15 18 15 20
-2 35 -27 24 -46 23 -30 -2z"/>
<path d="M23451 14576 c-15 -18 2 -56 24 -56 18 0 19 12 3 28 -8 8 -8 15 2 27
10 12 10 15 -3 15 -8 0 -20 -6 -26 -14z"/>
<path d="M13430 14561 c0 -6 5 -13 11 -16 7 -5 4 -14 -7 -26 -14 -16 -15 -19
-2 -19 8 0 22 8 31 18 13 14 13 20 3 35 -14 18 -36 23 -36 8z"/>
<path d="M13572 14558 c-16 -16 -15 -33 3 -48 19 -15 34 -5 17 12 -9 9 -8 16
5 30 13 15 14 18 2 18 -8 0 -20 -5 -27 -12z"/>
<path d="M26280 14561 c0 -6 5 -13 11 -17 8 -4 8 -9 0 -17 -15 -15 -14 -27 4
-27 8 0 19 8 24 19 8 14 6 22 -8 35 -20 18 -31 20 -31 7z"/>
<path d="M26419 14554 c-16 -19 -2 -47 27 -53 16 -3 16 -1 5 12 -7 9 -10 25
-6 37 8 24 -7 27 -26 4z"/>
<path d="M19754 14540 c-51 -16 -84 -54 -84 -95 0 -71 70 -125 161 -125 80 0
269 80 269 114 0 24 -38 47 -126 77 -99 33 -174 43 -220 29z"/>
<path d="M6990 14461 c0 -6 5 -13 10 -16 6 -3 7 -17 4 -31 -4 -14 -2 -24 4
-24 17 0 24 37 12 60 -11 21 -30 27 -30 11z"/>
<path d="M7093 14454 c-7 -19 7 -46 26 -52 10 -3 10 0 2 16 -6 11 -8 28 -5 36
3 9 1 16 -5 16 -7 0 -14 -7 -18 -16z"/>
<path d="M5290 14406 c6 -8 10 -24 8 -35 -2 -11 2 -21 7 -23 6 -2 11 7 13 20
4 24 -13 52 -30 52 -6 0 -5 -6 2 -14z"/>
<path d="M5370 14397 c0 -23 17 -47 33 -47 5 0 4 7 -3 15 -7 8 -10 24 -7 35 3
13 0 20 -9 20 -8 0 -14 -10 -14 -23z"/>
<path d="M27985 14343 c31 -8 58 -31 61 -48 7 -51 -137 -57 -1346 -62 -1626
-6 -2648 -2 -2705 9 -33 7 -1450 12 -4095 14 -3676 3 -4057 2 -4175 -12 -144
-18 99 -17 -3745 -12 -1851 2 -2895 -4 -4515 -28 -349 -6 -448 -10 -480 -22
-95 -35 -166 -43 -465 -53 -168 -5 -399 -13 -515 -17 -115 -4 -225 -4 -244 1
-19 5 -61 34 -97 68 -35 32 -71 59 -79 59 -9 0 -27 -11 -41 -25 -25 -25 -27
-25 -242 -30 -229 -5 -749 -11 -2017 -21 -423 -4 -771 -7 -772 -8 -1 -1 4 -30
12 -64 8 -34 12 -68 9 -77 -7 -18 -73 -39 -177 -55 -69 -11 -81 -11 -146 9
-54 16 -82 32 -116 65 -25 23 -45 41 -45 39 0 -2 11 -25 24 -52 27 -53 87
-111 115 -111 10 0 48 -16 85 -36 39 -20 104 -43 156 -54 93 -21 396 -54 590
-66 71 -4 126 -13 145 -22 33 -17 276 -29 725 -37 129 -2 352 -8 495 -14 597
-25 1789 -59 2785 -81 267 -5 532 -15 590 -20 58 -6 564 -15 1125 -20 561 -5
1389 -14 1840 -20 451 -6 1331 -17 1955 -25 l1135 -13 780 -180 c699 -162 895
-207 1429 -328 82 -19 154 -34 160 -33 14 1 -63 30 -89 33 -11 2 -85 20 -165
40 -205 53 -772 186 -1910 446 -195 45 -454 106 -575 135 -279 68 -473 108
-699 145 -199 33 -386 39 -661 20 -298 -20 -426 -25 -575 -23 -85 1 -229 1
-320 1 -1165 -5 -7182 -1 -7203 5 -28 8 -29 10 -25 62 1 30 3 56 3 56 0 1 -63
5 -140 9 -77 4 1804 6 4180 6 l4320 -2 183 -32 c249 -44 304 -56 887 -197
1975 -479 2391 -579 2567 -613 45 -8 46 -8 37 12 -7 15 -34 28 -102 48 -132
39 -597 154 -1312 323 -1109 263 -1516 366 -1558 397 -26 19 -12 47 35 68 l40
17 -37 7 c-20 4 -126 20 -235 36 -110 16 -208 33 -218 39 -10 5 -72 10 -138
10 -65 -1 -175 4 -244 10 -266 22 -385 27 -1970 81 -487 17 -903 31 -925 33
-83 5 546 17 1610 32 605 8 1420 20 1810 26 687 12 2122 7 2534 -7 l183 -7 15
-36 c12 -28 14 -62 10 -158 -6 -117 -5 -123 14 -123 11 0 115 9 232 19 116 11
281 25 365 32 148 12 153 13 148 33 -17 74 -38 197 -34 202 5 4 1067 -37 2493
-97 832 -34 806 -32 782 -79 -7 -14 -19 -45 -27 -70 -7 -25 -17 -50 -22 -56
-5 -6 -6 -19 -2 -28 4 -9 1 -16 -6 -16 -9 0 -10 -11 -5 -36 4 -24 3 -34 -4
-29 -6 3 -11 -1 -11 -9 0 -8 4 -17 9 -20 11 -7 2 -56 -11 -56 -6 0 -3 -10 5
-23 8 -13 12 -29 8 -36 -12 -19 2 -93 22 -119 5 -7 7 -15 4 -18 -3 -4 0 -13 8
-21 8 -8 15 -23 15 -32 0 -10 7 -24 15 -31 8 -7 15 -18 15 -25 0 -7 10 -25 22
-41 13 -15 17 -25 10 -21 -8 6 -10 3 -6 -7 3 -9 10 -16 15 -16 5 0 9 -7 9 -16
0 -10 6 -14 14 -11 9 4 13 1 10 -6 -2 -7 9 -27 25 -45 17 -17 27 -32 23 -32
-4 0 1 -5 11 -11 9 -5 17 -14 17 -20 0 -14 48 -57 71 -64 11 -4 17 -11 14 -16
-4 -5 6 -14 20 -19 16 -6 23 -14 19 -22 -5 -7 -1 -9 13 -6 16 4 19 2 16 -13
-4 -13 2 -20 21 -25 14 -3 26 -10 26 -16 0 -5 12 -20 26 -33 15 -14 22 -25 15
-25 -6 0 -10 -5 -9 -12 8 -34 -94 -49 -156 -23 -33 14 -36 14 -36 -2 0 -15 -2
-14 -15 3 -8 10 -15 14 -15 7 0 -6 9 -18 20 -26 11 -8 18 -16 15 -19 -3 -3 10
-17 29 -31 19 -15 40 -33 48 -40 7 -7 28 -19 46 -26 17 -7 32 -17 32 -22 0 -5
8 -9 18 -9 10 0 22 -4 28 -9 5 -6 20 -11 34 -13 14 -2 30 -7 36 -10 6 -4 14
-4 18 -1 10 10 46 11 46 1 0 -4 16 -6 35 -3 26 3 34 1 28 -8 -4 -7 0 -6 10 2
10 8 36 15 58 17 22 1 46 8 53 14 10 8 15 6 21 -7 6 -17 7 -17 16 0 9 15 13
16 27 5 10 -8 13 -9 9 -1 -5 8 4 12 31 11 22 0 49 5 62 12 18 9 24 9 30 0 6
-10 8 -10 12 0 4 12 19 15 98 24 19 2 46 8 60 14 14 5 37 8 53 6 15 -1 27 1
27 5 0 3 12 8 26 9 14 1 31 5 37 9 11 7 55 12 115 13 12 0 25 7 28 15 4 8 15
15 25 15 11 0 19 7 19 16 0 9 5 12 13 8 6 -4 3 2 -7 14 -19 22 -19 22 0 22 13
1 8 6 -16 19 -39 20 -140 41 -212 44 -25 1 -49 5 -53 9 -4 3 -18 4 -32 2 -14
-3 -32 1 -41 8 -12 10 -14 10 -8 1 5 -9 -2 -13 -23 -13 -17 0 -31 5 -31 11 0
8 -6 7 -17 -2 -11 -10 -14 -10 -9 -1 4 7 1 12 -8 12 -9 0 -16 -5 -16 -10 0
-12 -22 -9 -32 5 -5 6 -8 5 -8 -2 0 -7 -4 -13 -10 -13 -5 0 -7 8 -3 18 5 14 3
15 -8 5 -16 -15 -33 -17 -24 -3 3 6 0 10 -8 10 -7 0 -13 9 -12 20 2 26 34 60
50 54 7 -3 16 0 20 5 3 6 11 9 16 5 5 -3 25 3 43 14 26 15 37 17 46 9 10 -9
12 -8 7 6 -7 20 -3 21 26 5 20 -10 21 -10 8 5 -16 20 -16 20 27 8 41 -12 67
-5 51 15 -9 11 -5 11 20 4 19 -5 29 -5 26 1 -4 5 1 9 9 9 9 0 16 -6 16 -12 1
-8 6 -6 14 5 8 10 20 17 28 16 36 -5 108 2 104 10 -4 5 0 11 6 14 10 3 10 12
0 43 -27 80 -68 175 -138 319 -51 105 -61 128 -46 107 6 -10 74 -16 263 -23
339 -12 1512 -58 1716 -66 89 -3 160 -10 157 -15 -3 -4 -471 -8 -1039 -8 -938
0 -1034 -1 -1028 -16 5 -14 119 -15 1187 -13 l1181 2 350 69 c193 38 359 73
370 78 13 5 -36 9 -136 9 -214 1 -1928 68 -2064 80 -178 17 -991 26 -999 12
-10 -16 -106 185 -106 222 0 46 16 64 62 71 24 3 261 15 528 26 267 11 906 38
1420 59 514 22 937 38 939 35 4 -4 -21 -150 -35 -200 -5 -20 0 -21 148 -33 84
-7 250 -21 368 -32 118 -10 223 -19 233 -19 16 0 17 12 15 138 -1 89 2 144 10
158 11 21 20 22 319 30 673 19 3789 2 4553 -26 140 -5 493 -12 783 -16 290 -4
530 -11 533 -15 2 -4 -30 -8 -73 -8 -73 0 -195 -4 -438 -16 -55 -3 -167 -7
-249 -10 -81 -3 -185 -8 -230 -10 -44 -3 -144 -7 -221 -10 -77 -2 -174 -7
-215 -9 -41 -3 -133 -8 -205 -11 -315 -12 -402 -17 -429 -21 -19 -3 -36 1 -49
13 -19 17 -19 17 -13 -3 6 -19 1 -22 -36 -29 -24 -4 -50 -10 -58 -12 -29 -8
-148 -12 -480 -17 -184 -3 -348 -8 -365 -10 -16 -3 -55 -7 -85 -10 -30 -3
-179 -37 -330 -75 -151 -38 -295 -72 -320 -75 -88 -13 -147 -29 -299 -78 -85
-27 -295 -85 -465 -128 -853 -216 -937 -238 -948 -255 -4 -5 -13 -10 -20 -11
-7 0 -29 -4 -48 -9 -28 -7 -31 -9 -15 -15 29 -10 72 1 -1115 -301 -257 -65
-284 -74 -275 -89 4 -6 11 -8 16 -4 6 3 218 55 472 115 466 110 685 162 1495
354 243 57 466 107 495 109 29 3 583 10 1232 16 649 6 1493 15 1875 20 382 5
959 13 1283 16 323 4 587 10 587 14 0 14 -57 59 -105 83 -28 14 -85 33 -128
43 -47 11 -72 21 -64 26 7 5 -2 8 -23 7 -19 0 -240 2 -490 5 -250 3 -635 8
-855 11 -227 2 -429 9 -468 15 -56 10 -85 9 -170 -6 -81 -14 -162 -18 -387
-18 -260 0 -657 11 -670 19 -3 2 -28 4 -55 6 -86 4 -106 32 -46 64 24 13 21
14 -54 14 -44 0 -170 -6 -280 -14 -110 -8 -211 -14 -225 -14 -38 1 55 24 225
56 l150 28 1970 3 c1763 2 1978 1 2054 -13 93 -18 183 -51 233 -86 29 -20 31
-20 16 -3 -21 23 -86 58 -161 84 -54 19 -53 23 18 39 48 11 133 10 -1200 12
-561 1 -1146 -2 -1300 -6 -154 -4 -277 -5 -274 -1 8 8 483 27 1389 56 355 11
1057 34 1560 51 1678 55 2101 55 3635 -6 694 -28 1214 -59 1068 -64 -23 0 -75
-5 -115 -11 -43 -5 -700 -12 -1588 -15 -1783 -6 -1781 -6 -1755 -11 11 -2 141
-13 289 -24 148 -11 271 -22 274 -24 2 -3 19 2 36 11 28 14 128 16 1011 15
1621 0 1902 -2 1877 -13 -13 -5 -31 -18 -40 -29 -18 -21 -171 -66 -327 -97
-83 -16 -181 -18 -1225 -19 -624 -1 -1210 -5 -1302 -9 l-167 -7 -31 -47 c-36
-57 -38 -73 -7 -67 12 3 157 7 322 11 533 10 1647 46 2045 66 118 6 397 14
620 19 308 7 422 13 475 25 39 8 111 20 160 25 50 5 158 17 240 26 186 19 302
44 394 83 39 16 106 35 148 41 100 13 168 34 215 65 60 40 51 55 -29 49 -38
-4 -99 -12 -136 -20 -77 -15 -95 -11 -99 19 -4 26 -15 28 -268 51 -425 38
-1326 82 -2395 116 -176 5 -395 13 -486 16 -109 4 -169 3 -173 -4 -12 -19
-103 -23 -331 -13 -126 6 -360 16 -520 21 -159 6 -328 15 -375 20 -137 15
-1070 36 -2640 60 -689 10 -1236 23 -1665 40 -334 13 -724 20 -700 13z m-8155
-127 c0 -2 -24 -10 -52 -16 -117 -25 -253 -28 -608 -14 -684 28 -683 31 8 33
358 0 652 -1 652 -3z m1309 -12 c2 -2 -61 -5 -140 -5 -79 -1 -169 -3 -199 -5
-128 -10 -156 -10 -167 -2 -7 6 -14 2 -18 -11 -4 -12 -12 -18 -21 -14 -8 3
-20 1 -27 -4 -38 -30 -235 -52 -301 -33 -35 9 -48 9 -67 -1 -35 -18 -165 -13
-194 8 -29 22 -41 62 -23 75 13 9 1148 2 1157 -8z m9339 -81 c-10 -2 -26 -2
-35 0 -10 3 -2 5 17 5 19 0 27 -2 18 -5z m85 0 c-13 -2 -33 -2 -45 0 -13 2 -3
4 22 4 25 0 35 -2 23 -4z m155 0 c-21 -2 -57 -2 -80 0 -24 2 -7 4 37 4 44 0
63 -2 43 -4z m-22753 -86 c402 -15 1011 -36 1355 -47 933 -30 1724 -61 1730
-67 3 -3 -49 -3 -115 1 -66 3 -1708 8 -3650 11 -3453 5 -3802 8 -3753 36 23
13 697 45 1543 74 612 21 557 20 1405 19 617 0 889 -5 1485 -27z m-4505 -77
c-30 -5 -80 -8 -110 -8 -49 1 -51 1 -20 8 19 4 69 7 110 7 l75 0 -55 -7z
m33075 -11 c20 -6 -9 -8 -87 -5 -64 2 -125 9 -135 14 -22 13 177 4 222 -9z
m-198 -55 c-3 -3 -12 -4 -19 -1 -8 3 -5 6 6 6 11 1 17 -2 13 -5z m-9627 -138
c0 -8 -15 -19 -32 -25 -71 -22 -857 -195 -863 -189 -4 4 852 226 878 227 9 1
17 -5 17 -13z m-13867 -51 c56 -9 143 -23 192 -33 l90 -17 -190 -6 c-288 -9
-1885 5 -1873 16 6 5 1322 50 1571 53 59 1 153 -5 210 -13z m14427 0 c402 -8
1942 -63 2370 -84 137 -7 114 -8 -200 -11 -195 -1 -382 -3 -415 -5 -159 -8
-843 -17 -1520 -20 -731 -3 -1020 -9 -1255 -25 -63 -4 -116 -6 -118 -5 -5 4
216 63 358 95 188 43 364 69 435 65 33 -3 188 -7 345 -10z m-18450 -8 c-84
-13 -287 -13 -370 0 -54 9 -23 10 185 10 206 0 239 -2 185 -10z m113 6 c-7 -2
-19 -2 -25 0 -7 3 -2 5 12 5 14 0 19 -2 13 -5z m11741 -49 c3 -8 2 -12 -4 -9
-6 3 -10 10 -10 16 0 14 7 11 14 -7z m-7177 -90 c-3 -3 -12 -4 -19 -1 -8 3 -5
6 6 6 11 1 17 -2 13 -5z m12300 -30 c-3 -3 -12 -4 -19 -1 -8 3 -5 6 6 6 11 1
17 -2 13 -5z m-5329 -471 c-6 -7 -14 -10 -19 -7 -15 9 -10 20 10 20 15 0 17
-3 9 -13z m-38 -8 c0 -12 -19 -12 -23 0 -4 9 -1 12 9 8 7 -3 14 -7 14 -8z
m-87 -70 c4 -8 2 -17 -3 -20 -6 -4 -10 -4 -10 -1 0 2 -3 11 -6 20 -3 9 -2 16
4 16 5 0 12 -7 15 -15z m-29 -16 c-3 -5 -1 -9 3 -9 5 0 18 -7 29 -15 18 -14
18 -15 -4 -12 -12 2 -29 12 -37 23 -19 25 -19 35 0 28 8 -4 12 -10 9 -15z"/>
<path d="M2530 14252 c0 -17 4 -34 10 -37 6 -4 7 6 3 27 -8 44 -13 48 -13 10z"/>
<path d="M2501 14238 c-1 -16 4 -28 9 -28 12 0 12 8 0 35 -8 18 -9 17 -9 -7z"/>
<path d="M18629 13821 c-90 -96 -84 -95 -429 -105 -177 -6 -260 -9 -560 -21
-74 -3 -196 -8 -270 -10 -74 -3 -187 -7 -250 -10 -272 -11 -383 -16 -505 -21
-71 -4 -159 -8 -195 -9 -36 -2 -103 -13 -150 -25 -47 -12 -103 -22 -125 -22
-39 0 -39 0 -10 -9 17 -5 138 -31 270 -58 l240 -48 1304 1 c1034 1 1305 4
1308 14 4 9 -244 12 -1214 13 -1150 1 -1425 7 -968 23 110 3 425 15 700 26
275 10 733 27 1017 36 l517 18 32 75 c17 42 35 88 40 103 l7 27 -26 -18 c-15
-9 -48 -32 -74 -49 -54 -37 -101 -41 -233 -18 -49 8 -117 12 -177 9 -54 -3
-108 -3 -122 1 -27 7 -45 43 -48 98 -2 21 -8 38 -14 38 -6 0 -35 -26 -65 -59z"/>
<path d="M31968 13280 c-52 -28 -81 -73 -86 -134 -3 -50 0 -57 127 -281 72
-126 143 -240 156 -252 37 -33 96 -46 145 -33 22 6 51 21 65 33 13 12 83 123
155 247 l131 225 -3 60 c-4 72 -25 106 -84 135 -37 19 -59 20 -305 20 -241 -1
-267 -3 -301 -20z m402 -46 c0 -3 -26 -50 -57 -105 l-58 -100 -128 3 -129 3
-29 33 c-47 53 -36 127 26 160 21 12 375 17 375 6z m202 -23 c54 -48 48 -80
-56 -258 -48 -84 -90 -153 -91 -153 -5 0 -115 195 -115 204 0 18 113 197 137
216 38 29 86 26 125 -9z m-258 -341 c42 -73 56 -108 56 -137 -1 -56 -46 -103
-100 -103 -50 0 -74 27 -162 182 -49 85 -88 156 -88 158 0 3 54 4 119 2 l120
-3 55 -99z"/>
<path d="M16220 12950 c34 -11 60 -11 35 0 -11 5 -29 8 -40 8 -16 0 -15 -2 5
-8z"/>
<path d="M23285 12913 c-67 -16 -75 -21 -56 -33 9 -5 25 -1 45 11 17 10 39 19
48 19 9 0 20 5 23 10 3 6 5 10 3 9 -2 -1 -30 -8 -63 -16z"/>
<path d="M16476 12842 c-28 -6 -205 -64 -324 -106 -56 -20 -182 -56 -279 -81
-215 -55 -412 -118 -648 -207 -151 -57 -310 -120 -315 -126 -3 -3 4 -2 15 2
11 4 52 14 90 22 39 8 72 19 73 24 2 6 8 10 13 10 6 0 7 -6 3 -12 -6 -10 -5
-10 7 -1 8 6 33 16 57 22 23 7 42 16 42 21 0 6 14 10 31 10 24 0 30 4 25 15
-7 18 5 20 22 3 9 -9 12 -9 12 0 0 7 7 12 16 12 8 0 12 4 9 10 -4 6 5 7 23 4
30 -6 61 8 112 50 17 15 21 16 11 4 -12 -16 -11 -18 7 -18 12 0 23 4 27 10 3
5 12 7 19 4 7 -3 20 2 29 10 8 8 18 12 22 8 5 -4 5 1 2 11 -5 14 -3 16 12 8
12 -7 22 -6 31 2 10 10 11 9 5 -3 -6 -11 -3 -11 11 2 12 10 30 15 44 12 22 -4
23 -3 5 5 -11 5 -14 10 -7 10 6 1 14 1 17 2 2 0 37 9 77 21 40 11 78 21 83 22
6 2 23 8 40 15 16 7 41 13 56 14 15 1 25 6 22 10 -3 5 9 7 26 5 18 -1 38 4 50
14 13 11 32 15 57 13 27 -2 34 -1 23 7 -10 7 -6 8 14 3 19 -4 26 -2 22 5 -4 6
7 11 27 12 45 2 51 3 63 9 6 3 26 5 45 4 19 -1 41 2 47 8 7 5 32 10 56 11 24
1 49 6 57 11 10 6 12 4 6 -10 -5 -15 -4 -16 8 -6 20 16 41 81 30 90 -5 4 -18
6 -28 3z"/>
<path d="M16429 12713 c-13 -16 -12 -17 4 -4 16 13 21 21 13 21 -2 0 -10 -8
-17 -17z"/>
<path d="M25301 12500 c-99 -26 -142 -40 -117 -40 12 0 251 62 255 66 10 9
-31 1 -138 -26z"/>
<path d="M25157 12448 c6 -7 13 -26 17 -42 4 -15 9 -26 11 -24 8 8 -16 78 -27
78 -7 0 -7 -4 -1 -12z"/>
<path d="M15270 12370 c-208 -21 -601 -114 -586 -139 3 -4 -106 -61 -242 -126
-136 -65 -287 -139 -337 -165 -49 -26 -135 -71 -190 -100 -233 -123 -297 -157
-425 -233 -574 -340 -1132 -746 -1580 -1152 -157 -142 -460 -449 -569 -577
-176 -207 -329 -422 -361 -506 -10 -26 -25 -60 -34 -77 -10 -19 -12 -31 -5
-36 13 -8 -9 -101 -28 -112 -7 -4 -13 -22 -13 -39 0 -25 3 -29 18 -23 87 34
1530 314 1552 300 5 -3 11 -19 15 -35 23 -104 175 -430 278 -596 273 -441 598
-746 1058 -994 l114 -61 -70 5 c-38 3 -160 13 -270 22 -207 16 -248 21 -180
24 34 1 36 3 18 10 -12 5 -39 11 -60 13 -21 2 -51 9 -66 16 -16 6 -41 11 -56
11 -15 0 -31 3 -35 7 -3 4 -14 8 -24 9 -22 4 -99 23 -132 34 -50 17 -82 21
-75 11 3 -7 0 -8 -9 -5 -9 3 -13 10 -10 15 3 5 -1 7 -8 4 -7 -3 -60 24 -117
59 l-103 64 28 15 c16 8 102 42 192 77 89 35 161 65 159 67 -2 2 -78 -24 -168
-58 -242 -89 -361 -130 -355 -121 3 5 -84 40 -192 79 -313 112 -348 126 -527
208 -170 78 -610 305 -689 355 -143 91 -233 179 -259 252 -21 58 -21 26 -1
-43 40 -135 143 -285 270 -393 321 -274 905 -581 1510 -795 1008 -355 2273
-562 3462 -565 294 -1 344 1 352 14 5 8 45 101 88 205 78 188 104 257 83 224
-7 -10 -22 -15 -45 -13 -20 2 -36 0 -36 -5 0 -4 -12 -8 -27 -9 -16 -1 -44 -4
-63 -7 -19 -3 -51 -7 -70 -9 -19 -2 -35 -5 -35 -6 0 -1 -20 -3 -45 -5 -25 -2
-70 -6 -100 -9 -30 -3 -100 -9 -155 -12 -54 -3 -103 -8 -107 -11 -5 -2 -15 1
-23 7 -8 6 -20 8 -26 4 -18 -11 -201 -13 -221 -3 -10 5 -18 6 -18 1 0 -9 -94
-7 -108 2 -5 3 -14 1 -22 -4 -8 -5 -21 -5 -31 1 -11 6 -20 5 -24 -1 -4 -6 -13
-7 -23 -2 -9 5 -34 8 -54 7 -21 -1 -38 2 -38 5 0 4 -37 7 -82 7 -46 0 -159 2
-253 3 l-170 3 240 8 c281 9 598 26 740 40 189 18 319 68 421 162 155 141 652
1000 1152 1992 l81 161 553 221 c304 122 774 312 1043 423 270 111 528 217
575 235 182 70 574 241 745 325 200 98 293 156 338 212 97 120 -20 201 -483
332 -237 67 -667 172 -675 164 -2 -2 62 -23 143 -47 81 -23 170 -54 197 -67
28 -14 41 -23 30 -20 -11 3 -135 35 -276 71 -141 36 -294 74 -340 84 -46 10
-156 35 -244 56 -170 39 -312 69 -970 205 -179 37 -550 106 -620 116 -27 3
-59 8 -70 10 -114 22 -279 46 -317 48 -27 0 -48 4 -48 7 0 3 -26 7 -57 8 -32
1 -139 13 -238 26 -315 43 -580 73 -587 66 -4 -3 -60 -1 -125 5 -254 26 -521
37 -743 31 -124 -4 -241 -9 -260 -12 -34 -5 -34 -5 -6 5 97 31 474 38 841 15
127 -8 259 -14 295 -14 l65 2 -90 12 c-218 31 -752 45 -955 25z m920 -113 c0
-2 -10 -12 -22 -23 l-23 -19 19 23 c18 21 26 27 26 19z m-60 -51 c0 -2 -8 -10
-17 -17 -16 -13 -17 -12 -4 4 13 16 21 21 21 13z m-332 -51 c11 -9 -41 -80
-102 -140 -211 -206 -572 -548 -896 -850 -200 -187 -443 -414 -539 -504 -221
-207 -518 -467 -618 -543 -93 -70 -321 -185 -453 -228 -52 -17 -178 -52 -280
-77 -156 -38 -195 -44 -245 -39 -33 3 -124 13 -203 21 l-143 15 -167 -36 c-91
-19 -212 -51 -269 -70 -56 -19 -108 -34 -114 -34 -7 0 -65 31 -129 69 -63 38
-132 77 -152 87 -21 10 -38 21 -38 25 0 41 453 508 685 705 600 511 1283 959
1980 1300 286 140 362 167 448 158 54 -5 73 -2 147 26 242 90 578 134 940 122
80 -3 146 -6 148 -7z m272 1 c0 -2 -8 -10 -17 -17 -16 -13 -17 -12 -4 4 13 16
21 21 21 13z m768 -135 c82 -57 159 -84 350 -122 260 -52 292 -56 345 -35 43
16 43 16 227 -34 101 -28 194 -57 205 -64 37 -24 58 -82 53 -145 -3 -46 -21
-89 -96 -241 -168 -340 -400 -741 -640 -1105 -99 -151 -145 -210 -221 -286
-143 -142 -243 -198 -638 -355 -365 -145 -520 -191 -663 -195 l-45 -2 40 -6
c39 -6 38 -7 -32 -19 -138 -23 -309 -12 -547 38 -108 22 -117 25 -89 33 65 19
85 19 106 -1 20 -19 97 -39 97 -26 0 3 -5 14 -10 24 -7 13 -7 21 0 25 5 3 10
15 10 27 0 14 -5 18 -16 14 -12 -5 -15 -2 -10 9 5 14 -347 735 -359 735 -8 0
11 -42 79 -177 36 -72 62 -133 59 -137 -4 -3 -1 -6 6 -6 7 0 9 -4 6 -10 -3 -5
-1 -10 5 -10 6 0 8 -4 5 -10 -3 -5 -1 -10 5 -10 6 0 8 -4 5 -10 -3 -5 -1 -10
5 -10 6 0 8 -4 5 -10 -3 -5 -1 -10 5 -10 6 0 8 -4 5 -10 -3 -5 -1 -10 5 -10 6
0 9 -4 5 -9 -3 -5 2 -17 11 -25 8 -9 13 -16 10 -16 -4 0 23 -58 59 -130 61
-122 64 -130 46 -140 -18 -9 -39 29 -249 443 -228 447 -240 477 -197 477 7 0
16 -11 19 -25 4 -14 12 -25 20 -25 7 0 17 -10 23 -22 8 -19 26 -3 193 183 474
523 1158 1226 1300 1333 115 87 229 124 378 125 76 1 99 -3 120 -18z m-588
-55 c0 -2 -8 -10 -17 -17 -16 -13 -17 -12 -4 4 13 16 21 21 21 13z m-561 -533
c-162 -166 -403 -425 -702 -756 -157 -173 -197 -212 -197 -192 0 26 1024 1105
1049 1105 2 0 -65 -71 -150 -157z m3716 -83 c3 -6 -4 -10 -17 -10 -22 -1 -22
-2 5 -16 35 -19 30 -38 -9 -41 -20 -1 -22 0 -6 4 24 5 31 23 8 23 -19 0 -29
17 -22 35 6 17 32 20 41 5z m-237 -9 c8 -5 12 -21 10 -37 -2 -21 -9 -30 -25
-32 -20 -3 -23 1 -23 31 0 45 11 56 38 38z m51 -13 l15 -23 7 25 c5 20 7 15 8
-20 l1 -45 -20 25 -20 25 0 -25 c0 -36 -20 -4 -20 33 0 33 10 35 29 5z m63
-14 c2 -19 0 -37 -4 -40 -4 -3 -8 13 -8 35 0 51 6 53 12 5z m68 27 c0 -5 -9
-7 -20 -4 -16 4 -20 0 -20 -22 0 -22 4 -26 20 -22 22 6 28 -8 8 -15 -25 -9
-38 4 -38 38 0 30 3 34 25 34 14 0 25 -4 25 -9z m-334 -36 c18 -44 18 -51 -1
-35 -12 10 -18 10 -30 0 -8 -7 -15 -8 -15 -3 0 15 21 73 26 73 3 0 12 -16 20
-35z m34 13 l9 -23 7 23 c11 39 22 23 12 -18 -6 -22 -13 -40 -17 -40 -7 0 -31
58 -31 73 0 15 11 6 20 -15z m57 -30 c-2 -13 -4 -5 -4 17 -1 22 1 32 4 23 2
-10 2 -28 0 -40z m-189 15 c2 -12 -11 -49 -28 -82 -41 -81 -63 -82 -114 -6
-61 93 -48 117 64 113 68 -3 75 -5 78 -25z m780 -72 c9 -25 8 -29 -4 -24 -8 3
-22 -1 -31 -8 -15 -12 -16 -12 -10 4 4 11 10 30 13 43 7 29 19 24 32 -15z m42
9 c-6 -4 -8 -15 -4 -26 5 -16 4 -16 -5 -4 -6 8 -11 26 -11 39 0 20 2 22 15 11
11 -9 12 -15 5 -20z m40 -6 c0 -32 -2 -35 -16 -23 -10 8 -12 15 -5 17 6 2 11
12 11 23 0 10 2 19 5 19 3 0 5 -16 5 -36z m34 21 c-4 -10 0 -15 12 -16 17 -1
17 -2 2 -6 -10 -2 -18 -8 -18 -13 0 -5 8 -11 18 -13 13 -4 11 -5 -5 -6 -20 -1
-23 4 -23 34 0 19 4 35 10 35 5 0 7 -7 4 -15z m77 -48 c15 -4 14 -4 -3 -3 -18
1 -24 8 -25 34 -3 30 -3 31 3 3 3 -19 13 -31 25 -34z m-420 26 c7 -20 6 -30
-5 -41 -21 -22 -46 -8 -46 26 0 49 34 60 51 15z m49 -5 c0 -5 -4 -7 -9 -3 -5
3 -12 -7 -14 -22 -3 -19 -4 -14 -6 16 -1 38 1 42 14 31 8 -7 15 -17 15 -22z
m30 -4 c0 -24 -4 -34 -12 -31 -7 2 -13 9 -12 15 1 7 2 21 3 32 2 35 21 21 21
-16z m90 16 c0 -11 -7 -20 -15 -20 -8 0 -15 -7 -15 -15 0 -8 -4 -15 -10 -15
-5 0 -10 16 -10 35 0 31 3 35 25 35 18 0 25 -5 25 -20z m-450 -5 c10 -13 8
-19 -13 -39 l-26 -24 -6 30 c-5 21 -3 33 6 39 19 12 25 11 39 -6z m50 3 c-21
-9 -22 -12 -7 -15 9 -3 17 -8 17 -13 0 -5 -8 -10 -17 -13 -15 -3 -14 -6 7 -15
l25 -11 -27 0 c-26 -1 -28 2 -28 39 0 37 2 40 28 39 l27 0 -25 -11z m80 3 c0
-5 -6 -8 -12 -7 -14 1 -18 -5 -18 -30 0 -10 6 -14 15 -10 17 6 21 -9 5 -19
-25 -16 -55 47 -33 68 9 10 43 8 43 -2z m53 2 c-7 -2 -14 -19 -14 -36 l-2 -32
-4 30 c-3 16 -10 33 -16 37 -7 4 2 7 18 7 17 0 24 -3 18 -6z m36 -50 c1 -7 -3
-13 -9 -13 -5 0 -10 17 -9 38 1 33 2 34 9 12 4 -14 8 -31 9 -37z m-420 5 c-1
-42 -1 -42 -10 -13 -5 17 -7 36 -4 43 9 24 15 11 14 -30z m42 20 l18 -23 2 25
c1 20 3 19 9 -10 10 -43 -3 -61 -21 -29 l-13 24 -7 -25 -7 -25 -1 27 c-1 14
-4 33 -7 42 -9 23 5 20 27 -6z m82 15 c-28 -5 -30 -19 -3 -26 23 -6 27 -35 5
-43 -8 -3 -20 -2 -27 2 -9 6 -6 10 12 15 l25 7 -22 7 c-34 11 -30 45 5 44 23
-2 24 -2 5 -6z m-4365 -813 c-6 -19 -510 -591 -516 -586 -8 8 48 76 265 323
109 124 206 236 216 249 19 24 42 33 35 14z m128 -275 c38 -82 120 -253 181
-380 78 -159 109 -231 99 -233 -16 -4 -388 86 -535 129 -125 37 -178 64 -197
101 -20 38 -17 68 9 117 26 49 360 433 368 423 3 -4 36 -74 75 -157z m2585
-452 c-472 -943 -992 -1847 -1152 -2005 -102 -100 -230 -147 -459 -167 -339
-30 -1101 -41 -1140 -16 -14 9 -27 11 -125 18 -23 2 -47 7 -54 11 -7 4 -15 5
-18 2 -3 -3 -15 0 -27 6 -11 7 -31 11 -43 9 -12 -1 -30 2 -41 8 -12 7 -22 7
-29 0 -20 -20 -328 100 -543 212 -510 266 -897 662 -1168 1197 -82 162 -179
398 -169 409 10 9 186 38 532 87 474 68 490 69 558 62 36 -3 379 -92 763 -196
385 -105 748 -200 809 -211 90 -18 134 -21 250 -16 162 5 276 29 475 100 156
55 890 335 1315 501 176 69 323 125 328 126 4 0 -24 -62 -62 -137z m-5744 -29
c-3 -3 -12 -4 -19 -1 -8 3 -5 6 6 6 11 1 17 -2 13 -5z m-117 -41 c-8 -3 -37
-17 -65 -30 -27 -14 -45 -20 -38 -13 15 17 84 48 103 48 13 0 13 0 0 -5z
m-170 -57 c0 -2 -7 -7 -16 -10 -8 -3 -12 -2 -9 4 6 10 25 14 25 6z m-54 -58
c-8 -5 -19 -8 -22 -8 -4 1 -10 -3 -13 -8 -10 -16 -61 -26 -61 -12 0 7 6 10 13
7 8 -3 20 -1 28 5 11 8 10 9 -3 4 -10 -3 -18 -1 -18 5 0 7 13 9 30 7 22 -3 29
-1 26 8 -3 8 0 11 10 7 8 -3 14 -2 13 3 -3 19 4 28 8 10 3 -11 -2 -23 -11 -28z
m3881 -3 c0 -17 -13 -20 -21 -6 -4 5 0 12 6 14 7 3 13 6 14 6 0 1 1 -6 1 -14z"/>
<path d="M14866 10357 c3 -10 9 -15 12 -12 3 3 0 11 -7 18 -10 9 -11 8 -5 -6z"/>
<path d="M19140 11304 c0 -31 23 -28 28 4 2 15 -2 22 -12 22 -11 0 -16 -9 -16
-26z"/>
<path d="M18990 11300 c0 -5 5 -10 11 -10 5 0 7 5 4 10 -3 6 -8 10 -11 10 -2
0 -4 -4 -4 -10z"/>
<path d="M18810 11311 c-44 -5 -55 -9 -54 -23 2 -27 64 -118 80 -118 17 0 77
117 70 136 -3 8 -13 13 -23 12 -10 -1 -43 -4 -73 -7z"/>
<path d="M19670 11230 c0 -5 5 -10 10 -10 6 0 10 5 10 10 0 6 -4 10 -10 10 -5
0 -10 -4 -10 -10z"/>
<path d="M19434 11236 c-7 -20 2 -46 16 -46 13 0 13 47 0 55 -6 3 -13 -1 -16
-9z"/>
<path d="M19600 11240 c0 -5 7 -10 15 -10 8 0 15 5 15 10 0 6 -7 10 -15 10 -8
0 -15 -4 -15 -10z"/>
<path d="M19160 11220 c0 -5 5 -10 10 -10 6 0 10 5 10 10 0 6 -4 10 -10 10 -5
0 -10 -4 -10 -10z"/>
<path d="M26620 12339 c-36 -22 -94 -50 -130 -64 -73 -28 -83 -34 -203 -125
-48 -36 -270 -180 -494 -320 -795 -496 -1119 -727 -1375 -979 -89 -86 -103
-114 -75 -143 14 -16 15 -21 20 -85 2 -26 9 -58 15 -69 6 -12 9 -24 5 -27 -3
-4 0 -13 7 -22 7 -9 10 -18 8 -21 -3 -3 0 -29 7 -57 15 -56 26 -117 29 -158 2
-14 6 -30 9 -37 7 -11 13 -45 42 -273 14 -111 16 -142 16 -304 1 -63 3 -55 19
69 38 283 84 448 184 651 212 432 542 776 1611 1679 317 268 385 327 375 325
-3 0 -34 -19 -70 -40z"/>
<path d="M16719 12279 c40 -16 564 -91 616 -88 33 2 -47 16 -335 58 -284 42
-322 46 -281 30z"/>
<path d="M14640 12220 c-8 -5 -10 -10 -5 -10 6 0 17 5 25 10 8 5 11 10 5 10
-5 0 -17 -5 -25 -10z"/>
<path d="M19600 12204 c85 -16 1051 -144 1083 -144 55 0 -10 12 -243 44 -668
93 -1052 139 -840 100z"/>
<path d="M14570 12190 c-8 -5 -10 -10 -5 -10 6 0 17 5 25 10 8 5 11 10 5 10
-5 0 -17 -5 -25 -10z"/>
<path d="M17373 12183 c9 -2 23 -2 30 0 6 3 -1 5 -18 5 -16 0 -22 -2 -12 -5z"/>
<path d="M31035 12098 c-11 -6 -39 -28 -62 -50 -24 -21 -48 -38 -55 -38 -7 0
-80 -9 -163 -20 -82 -11 -151 -20 -152 -20 -1 0 0 -7 3 -15 16 -42 146 -92
469 -181 469 -129 726 -218 1066 -369 288 -128 464 -223 619 -334 47 -33 95
-61 107 -61 12 0 51 20 86 45 108 75 227 127 305 133 l68 4 121 -81 c67 -44
126 -81 132 -81 20 0 11 19 -11 26 -13 4 -57 39 -98 79 -84 82 -131 113 -322
218 -245 134 -563 286 -756 363 -64 25 -139 55 -166 66 -27 11 -56 21 -65 24
-9 2 -61 19 -116 38 -166 57 -320 101 -601 170 -170 42 -239 52 -257 38 -9 -8
-149 -32 -184 -32 -2 0 -3 7 -3 16 0 9 14 29 31 45 34 32 34 34 4 17z"/>
<path d="M20926 10956 c-27 -11 -31 -20 -57 -130 -15 -65 -30 -121 -33 -124
-3 -3 -53 27 -112 65 -98 66 -108 70 -135 60 -16 -6 -29 -14 -29 -18 0 -3 62
-46 138 -95 l137 -90 30 -79 c17 -43 35 -80 40 -82 6 -2 19 3 30 10 18 14 17
17 -14 95 l-33 82 37 155 c20 86 35 158 33 160 -1 2 -16 -2 -32 -9z"/>
<path d="M20480 10784 c-19 -7 -95 -36 -168 -64 -122 -48 -132 -53 -126 -73
11 -38 20 -39 85 -13 34 15 66 23 70 19 4 -5 38 -84 74 -178 37 -93 69 -173
72 -177 2 -5 17 -1 33 7 l30 15 -19 48 c-10 26 -42 105 -70 176 -29 71 -50
134 -48 140 3 6 32 21 66 34 33 13 61 27 61 30 -1 4 -6 17 -13 28 -11 21 -14
21 -47 8z"/>
<path d="M20058 10623 c-10 -2 -18 -11 -18 -18 0 -15 149 -406 160 -418 10
-11 60 10 60 25 0 28 -160 413 -172 414 -7 1 -21 0 -30 -3z"/>
<path d="M19754 10506 c-61 -29 -117 -92 -134 -152 -41 -145 74 -304 221 -304
94 0 162 39 215 122 13 21 24 39 24 42 0 2 -14 10 -32 17 -23 9 -33 10 -36 1
-10 -30 -51 -77 -82 -93 -160 -85 -329 129 -209 266 16 18 46 39 66 46 34 11
101 8 134 -6 12 -5 19 2 28 26 6 18 11 33 11 35 0 2 -17 8 -37 13 -60 17 -114
13 -169 -13z"/>
<path d="M19246 10304 c-121 -44 -187 -168 -152 -286 53 -183 270 -235 406
-99 74 74 91 171 46 267 -52 112 -180 162 -300 118z m150 -103 c58 -35 81
-129 48 -192 -20 -40 -93 -73 -139 -65 -69 13 -115 73 -115 152 0 41 5 51 39
85 34 35 44 39 87 39 30 0 61 -7 80 -19z"/>
<path d="M18722 10089 l-42 -18 21 -53 c12 -29 48 -123 81 -208 33 -85 61
-156 63 -158 2 -3 295 107 303 114 7 5 -23 77 -33 80 -6 3 -54 -13 -108 -35
l-97 -40 -13 27 c-8 15 -38 88 -67 162 -29 74 -56 138 -59 141 -3 4 -25 -2
-49 -12z"/>
<path d="M18397 9966 c-72 -20 -127 -63 -159 -125 -63 -120 -14 -262 110 -318
45 -21 65 -25 111 -20 135 12 231 112 231 239 -1 154 -146 264 -293 224z m124
-109 c67 -45 88 -135 46 -198 -29 -43 -60 -59 -119 -59 -102 0 -169 117 -120
209 37 68 129 91 193 48z"/>
<path d="M21293 9933 c20 -2 54 -2 75 0 20 2 3 4 -38 4 -41 0 -58 -2 -37 -4z"/>
<path d="M21218 9923 c7 -3 16 -2 19 1 4 3 -2 6 -13 5 -11 0 -14 -3 -6 -6z"/>
<path d="M21428 9923 c7 -3 16 -2 19 1 4 3 -2 6 -13 5 -11 0 -14 -3 -6 -6z"/>
<path d="M21110 9895 c-36 -13 -60 -24 -54 -24 5 -1 41 10 80 23 38 14 62 24
54 24 -8 0 -44 -10 -80 -23z"/>
<path d="M21535 9884 c6 -5 28 -25 50 -44 l40 -35 -30 33 c-17 19 -39 38 -50
44 -11 6 -15 7 -10 2z"/>
<path d="M20960 9850 c-30 -10 -131 -43 -225 -73 -303 -98 -1013 -380 -1225
-487 -86 -44 -152 -119 -174 -200 -4 -14 7 0 24 30 50 89 94 126 215 184 266
128 571 247 1125 440 168 59 314 111 325 116 36 16 -7 9 -65 -10z"/>
<path d="M18062 9830 l-43 -20 3 -165 c2 -91 1 -165 -2 -165 -3 0 -44 44 -92
98 -136 153 -128 148 -183 127 -25 -10 -44 -21 -43 -26 6 -16 324 -347 334
-348 6 -1 28 6 48 14 l36 15 0 245 c0 135 -3 245 -7 244 -5 0 -27 -9 -51 -19z"/>
<path d="M23691 9571 c12 -21 50 -74 85 -117 53 -67 62 -84 58 -110 -4 -23 3
-39 27 -70 17 -21 38 -56 46 -76 8 -21 20 -38 27 -38 6 0 43 9 81 20 39 11
158 43 265 71 107 28 201 55 207 61 17 14 7 28 -20 28 -36 0 -156 63 -236 124
-73 55 -96 61 -136 37 -5 -3 -12 -6 -15 -6 -3 0 -36 -16 -75 -34 -72 -36 -95
-52 -95 -70 0 -6 -5 -11 -11 -11 -5 0 -7 -5 -3 -11 4 -8 1 -8 -13 -1 -30 16
-136 133 -173 191 -39 60 -50 67 -19 12z"/>
<path d="M20400 9532 c-101 -14 -131 -41 -109 -93 26 -64 91 -78 140 -30 52
52 32 132 -31 123z"/>
<path d="M21781 9485 c0 -5 11 -30 24 -55 13 -25 24 -40 24 -35 0 6 -11 30
-24 55 -13 25 -24 41 -24 35z"/>
<path d="M24491 9434 c0 -11 3 -14 6 -6 3 7 2 16 -1 19 -3 4 -6 -2 -5 -13z"/>
<path d="M20623 9381 c-17 -11 -34 -17 -37 -14 -3 4 -6 -2 -6 -12 0 -15 -3
-16 -12 -7 -10 10 -16 8 -31 -10 -17 -21 -18 -21 -13 -3 6 19 5 18 -13 -2 -10
-12 -20 -21 -22 -20 -3 1 -2 -2 2 -6 3 -4 30 1 60 12 30 10 66 22 82 25 26 6
27 6 10 -12 -10 -10 -27 -17 -38 -16 -11 0 -30 -6 -42 -13 -12 -8 -30 -16 -39
-17 -10 -2 -20 -8 -21 -13 -6 -16 18 -28 27 -13 4 6 10 11 14 10 4 -1 19 2 34
8 68 24 208 66 215 64 5 -1 5 8 2 20 -7 23 -7 23 9 3 15 -19 15 -19 14 8 -3
30 -10 34 -31 12 -8 -8 -18 -11 -21 -7 -4 3 -22 -2 -41 -12 -39 -21 -62 -16
-67 13 -3 21 -3 21 -35 2z"/>
<path d="M21832 9370 c3 -8 41 -94 83 -190 43 -96 81 -186 86 -200 9 -24 8
-24 -6 -6 -8 11 -15 24 -15 29 0 5 -10 6 -22 3 -66 -19 -128 -34 -173 -41 -69
-11 -276 -13 -296 -4 -8 4 -29 10 -45 13 -16 2 -30 5 -31 6 -2 2 -11 3 -20 4
-10 1 -30 9 -44 19 -14 10 -34 15 -43 11 -11 -4 -16 -1 -16 10 0 9 -3 15 -7
15 -5 -1 -10 -1 -13 1 -3 1 -14 3 -26 5 -12 3 -43 14 -70 26 -52 24 -58 26
-75 28 -5 0 -7 6 -3 12 5 8 -1 10 -19 5 -14 -3 -29 -2 -32 4 -3 6 -20 9 -36 8
-22 -2 -29 -7 -30 -23 0 -15 -2 -16 -7 -5 -6 13 -13 13 -39 5 -26 -9 -30 -14
-21 -23 9 -9 8 -12 -5 -12 -9 0 -17 -7 -17 -15 0 -9 -7 -18 -15 -21 -12 -5
-13 -9 -4 -20 10 -12 8 -13 -6 -7 -14 5 -17 3 -12 -10 3 -9 2 -17 -3 -17 -6 0
-10 -6 -10 -14 0 -8 -9 -21 -20 -29 -11 -8 -17 -17 -13 -21 4 -3 -3 -20 -16
-36 -12 -17 -19 -35 -16 -40 3 -6 2 -10 -2 -10 -5 0 -17 -16 -27 -35 -10 -19
-23 -32 -27 -29 -5 3 -9 -1 -9 -8 -1 -36 -170 -183 -265 -229 -27 -13 -53 -28
-56 -32 -3 -5 -9 -8 -13 -8 -3 0 -30 -10 -60 -24 -30 -14 -61 -25 -69 -25 -8
0 -20 -7 -27 -15 -7 -8 -16 -13 -20 -10 -4 3 -25 -3 -46 -12 -22 -9 -41 -17
-44 -18 -7 -2 -237 -74 -295 -93 -53 -17 -57 -18 -120 -27 -21 -3 -44 -10 -50
-15 -8 -7 -85 -25 -145 -34 -8 -2 -35 -6 -60 -11 -25 -4 -54 -9 -65 -10 -15
-1 -21 -10 -23 -33 -4 -40 -22 -42 -22 -3 0 17 -4 33 -10 36 -5 3 -10 2 -10
-3 0 -5 -10 -8 -22 -7 -13 1 -42 -4 -65 -11 -40 -12 -51 -10 -175 28 -123 39
-142 42 -248 42 -104 1 -123 -2 -205 -31 l-90 -32 -95 30 c-281 89 -656 140
-805 109 -98 -20 -133 -44 -275 -190 -81 -84 -145 -141 -160 -144 -14 -3 -86
-8 -161 -11 -138 -7 -178 -16 -149 -35 15 -9 14 -14 -14 -80 -6 -13 13 -15
141 -12 82 1 167 7 189 12 23 5 99 44 170 87 71 42 150 85 177 95 55 21 194
24 358 8 105 -11 293 -45 315 -58 8 -5 -4 -30 -41 -80 -80 -109 -159 -273
-295 -612 -67 -168 -153 -380 -191 -471 l-71 -166 -281 -6 c-421 -10 -3049 -7
-3072 3 -12 5 413 8 1032 7 l1052 -2 41 87 c22 47 40 89 40 92 0 3 -507 6
-1127 6 l-1127 0 -49 -51 c-46 -47 -49 -54 -44 -90 l5 -39 -90 0 -91 0 -48
-49 c-61 -60 -63 -92 -15 -203 103 -236 296 -438 527 -551 229 -111 581 -171
1219 -207 110 -7 511 -11 918 -11 l723 0 40 34 c22 19 59 40 82 46 31 9 845
11 3207 9 l3165 -3 45 -26 c25 -15 54 -37 65 -49 l20 -22 1155 7 c635 4 1156
8 1157 9 6 5 -79 170 -108 213 -55 80 -60 83 -143 83 l-75 0 -37 70 c-20 38
-54 90 -76 115 l-40 45 -444 0 -444 0 1 -22 c0 -13 6 -57 14 -98 7 -41 11 -77
8 -80 -7 -7 -1008 -13 -1046 -6 l-33 6 -38 168 c-255 1124 -534 2038 -777
2551 -32 68 -59 130 -59 137 0 25 60 81 121 114 35 18 108 47 163 64 92 29
103 35 133 74 18 24 37 50 42 59 15 27 78 17 166 -26 75 -37 78 -38 46 -10
-49 41 -33 46 20 6 24 -18 77 -54 116 -81 40 -26 76 -53 80 -59 5 -9 3 -9 -8
-1 -8 5 -27 16 -44 22 l-30 12 30 -25 c28 -24 141 -95 151 -95 2 0 4 15 4 33
0 17 7 45 15 61 8 15 15 30 15 31 0 2 -37 23 -83 48 -45 24 -134 78 -197 119
-121 79 -210 127 -272 147 -52 17 -117 16 -135 -1 -8 -8 -19 -47 -25 -87 -6
-40 -19 -82 -29 -95 -11 -13 -50 -34 -96 -51 -96 -33 -168 -73 -215 -119 -45
-44 -51 -69 -25 -103 11 -16 13 -21 4 -13 -9 8 -45 63 -80 121 -152 252 -242
339 -350 339 -70 0 -109 -64 -72 -116 20 -29 26 -71 11 -83 -16 -14 -235 -91
-257 -91 -10 0 -19 -6 -22 -12 -2 -7 -45 70 -96 172 -82 164 -115 225 -99 180z
m964 -617 c163 -369 331 -900 527 -1673 65 -254 207 -850 207 -868 0 -32 -30
-32 -3037 -32 -2395 0 -2990 2 -3011 12 -40 19 -38 53 8 153 90 196 213 481
213 495 0 17 144 371 156 383 4 4 77 23 161 42 274 62 624 162 1060 302 253
81 333 108 1450 499 588 205 1515 518 2125 716 113 37 111 37 141 -29z m-5020
-612 c12 10 13 9 8 -5 -8 -21 -34 -21 -33 2 0 11 2 12 6 4 4 -10 8 -10 19 -1z
m89 -30 c2 -11 0 -21 -6 -21 -5 0 -9 12 -9 27 0 30 9 27 15 -6z m63 8 c3 -12
2 -12 -6 0 -6 8 -15 10 -22 6 -9 -5 -11 -4 -6 4 10 15 28 10 34 -10z m62 7 c0
-2 -7 -6 -15 -10 -8 -3 -15 -1 -15 4 0 6 7 10 15 10 8 0 15 -2 15 -4z m117
-30 c-3 -8 -1 -17 6 -20 7 -2 4 -5 -5 -5 -10 -1 -18 1 -18 3 0 10 13 36 17 36
3 0 3 -6 0 -14z m58 -16 c-3 -5 -12 -10 -18 -10 -7 0 -6 4 3 10 19 12 23 12
15 0z m-2046 -1674 c21 -25 16 -54 -24 -137 l-40 -82 -195 7 c-348 12 -730 48
-900 85 -106 24 -230 71 -290 111 l-45 30 741 0 c628 0 743 -2 753 -14z
m-1832 -76 c49 -55 168 -150 237 -190 68 -39 68 -49 0 -19 -112 49 -284 190
-284 233 0 23 6 20 47 -24z m9239 -362 c4 -5 5 -10 2 -13 -2 -3 -597 -5 -1321
-5 -945 0 -1317 -4 -1317 -11 0 -11 -25 -10 -163 7 -29 4 -53 2 -59 -4 -7 -7
-16 -7 -28 1 -14 8 -35 8 -84 -1 -50 -10 -76 -10 -111 -1 -29 7 -71 9 -113 4
-77 -8 -82 -8 -222 -1 -62 3 -109 1 -116 -5 -8 -7 -14 -6 -19 1 -4 7 -399 10
-1271 10 -1145 0 -1341 4 -1241 23 39 8 6055 2 6063 -5z"/>
<path d="M20446 9302 c-3 -5 1 -9 9 -9 8 0 12 4 9 9 -3 4 -7 8 -9 8 -2 0 -6
-4 -9 -8z"/>
<path d="M20471 9262 c-8 -14 -5 -18 12 -19 16 -2 18 0 8 6 -7 5 -10 14 -7 20
4 6 5 11 2 11 -3 0 -10 -8 -15 -18z"/>
<path d="M23590 9057 c0 -2 15 -14 33 -27 l32 -23 -24 26 c-21 23 -41 35 -41
24z"/>
<path d="M10902 8940 c0 -14 2 -19 5 -12 2 6 2 18 0 25 -3 6 -5 1 -5 -13z"/>
<path d="M13140 8082 c0 -7 -9 -12 -20 -12 -21 0 -27 -15 -10 -25 6 -3 10 -11
10 -17 0 -6 -8 -4 -18 5 -25 23 -35 21 -26 -5 6 -22 6 -22 -13 -5 -19 16 -43
23 -43 11 0 -3 5 -15 11 -27 12 -21 11 -21 -8 -4 -26 23 -36 22 -28 -5 6 -21
5 -22 -8 -5 -8 9 -22 17 -32 17 -12 0 -15 -5 -11 -17 5 -15 4 -15 -9 1 -12 15
-15 16 -15 5 0 -21 50 -68 51 -48 1 8 1 17 0 21 0 4 6 5 14 2 8 -3 20 -2 27 2
7 5 22 10 33 11 10 2 30 10 42 18 13 9 23 13 23 10 0 -3 13 1 29 10 23 11 30
12 34 2 2 -6 7 -9 11 -6 3 3 -5 21 -19 39 -14 19 -25 29 -25 22z m20 -33 c0
-6 -4 -7 -10 -4 -5 3 -10 11 -10 16 0 6 5 7 10 4 6 -3 10 -11 10 -16z m-105
-30 c11 -17 -1 -21 -15 -4 -8 9 -8 15 -2 15 6 0 14 -5 17 -11z"/>
<path d="M16588 6829 c-46 -24 -48 -41 -8 -69 47 -34 65 -24 65 34 0 27 -4 51
-10 52 -5 2 -27 -6 -47 -17z"/>
<path d="M16690 6831 c-11 -22 9 -51 36 -51 8 0 14 -7 14 -16 0 -13 -7 -15
-32 -10 -24 5 -29 3 -21 -5 18 -18 68 -7 71 17 2 16 -4 24 -28 33 -36 12 -31
31 8 31 21 0 24 2 12 10 -24 15 -48 12 -60 -9z"/>
<path d="M16770 6840 c0 -5 7 -10 14 -10 11 0 16 -14 19 -47 l3 -48 2 48 c2
34 6 47 17 47 8 0 15 5 15 10 0 6 -16 10 -35 10 -19 0 -35 -4 -35 -10z"/>
<path d="M16860 6795 l0 -55 38 1 c35 1 35 2 8 8 -38 8 -47 31 -12 31 14 0 26
5 26 10 0 6 -11 10 -25 10 -16 0 -25 6 -25 15 0 10 10 15 30 15 17 0 30 5 30
10 0 6 -16 10 -35 10 l-35 0 0 -55z"/>
<path d="M16950 6795 c0 -30 5 -55 10 -55 6 0 10 9 10 20 0 13 7 20 20 20 10
0 24 9 30 19 13 25 -11 51 -46 51 -22 0 -24 -3 -24 -55z m58 18 c-5 -26 -38
-29 -38 -4 0 15 6 21 21 21 14 0 19 -5 17 -17z"/>
<path d="M17093 6795 c0 -33 2 -50 4 -37 3 15 11 22 28 22 17 0 25 -7 27 -22
2 -13 6 1 9 30 2 30 1 56 -3 59 -5 2 -8 -7 -8 -21 0 -21 -5 -26 -24 -26 -19 0
-26 6 -29 28 -2 15 -4 0 -4 -33z"/>
<path d="M17190 6795 l0 -55 38 1 c30 2 32 3 10 6 -32 5 -38 33 -8 33 11 0 20
5 20 10 0 6 -9 10 -20 10 -11 0 -20 7 -20 15 0 9 9 15 25 15 14 0 25 5 25 10
0 6 -16 10 -35 10 l-35 0 0 -55z"/>
<path d="M17287 6843 c-11 -10 -8 -103 3 -103 6 0 10 9 10 20 0 11 6 20 14 20
8 0 18 -9 21 -20 3 -11 11 -20 16 -20 6 0 6 8 -1 20 -8 14 -7 25 2 39 9 15 9
23 -1 35 -14 16 -52 22 -64 9z m53 -28 c0 -8 -9 -15 -20 -15 -11 0 -20 7 -20
15 0 8 9 15 20 15 11 0 20 -7 20 -15z"/>
<path d="M17384 6836 c-3 -8 -4 -31 -2 -52 3 -37 5 -39 38 -40 26 -1 28 -1 8
3 -19 3 -28 10 -28 23 0 13 9 20 28 23 l27 4 -27 2 c-36 1 -39 31 -3 31 14 0
25 5 25 10 0 15 -60 12 -66 -4z"/>
</g>
</svg>
